<?xml version="1.0" encoding="UTF-8"?>
<svg width="66px" height="50px" viewBox="0 0 66 50" version="1.1" xmlns="http://www.w3.org/2000/svg" xmlns:xlink="http://www.w3.org/1999/xlink">
    <defs>
        <polygon id="path-1" points="0.051456 0.16239267 7.973632 0.16239267 7.973632 4.34586387 0.051456 4.34586387"></polygon>
        <polygon id="path-3" points="0.06912 0.16239267 9.325568 0.16239267 9.325568 4.34586387 0.06912 4.34586387"></polygon>
        <polygon id="path-5" points="0.209408 0.16239267 7.56992 0.16239267 7.56992 4.34586387 0.209408 4.34586387"></polygon>
        <polygon id="path-7" points="0.01536 0.0731151832 45.481472 0.0731151832 45.481472 22.4096754 0.01536 22.4096754"></polygon>
    </defs>
    <g id="Hilton-hotels-resorts-66x50-Copy" stroke="none" stroke-width="1" fill="none" fill-rule="evenodd">
        <g id="HHR_logo_masterbrand_color_rgb_104C97" transform="translate(1.000000, 1.000000)">
            <g>
                <g id="Group-4" transform="translate(4.096000, 44.638743)">
                    <mask id="mask-2" fill="white">
                        <use xlink:href="#path-1"></use>
                    </mask>
                    <g id="Clip-2"></g>
                    <polyline id="Fill-1" fill="#1E4380" mask="url(#mask-2)" points="2.615296 4.27351832 2.615296 2.50028272 0.766464 2.50028272 0.766464 4.27351832 0.051456 4.27351832 0.051456 0.241921466 0.766464 0.241921466 0.766464 1.84789005 2.615296 1.84789005 2.615296 0.241921466 3.337216 0.241921466 3.337216 4.27351832 2.615296 4.27351832"></polyline>
                    <path d="M6.045184,0.774764398 C5.283328,0.774764398 4.839424,1.41073822 4.839424,2.25374346 C4.839424,3.0731466 5.307136,3.74888482 6.045184,3.74888482 C6.798848,3.74888482 7.244032,3.09700524 7.244032,2.26195288 C7.244032,1.43459686 6.775552,0.774764398 6.045184,0.774764398 Z M6.045184,4.35330366 C5.005568,4.35330366 4.109312,3.56622513 4.109312,2.26195288 C4.109312,0.94921466 5.014016,0.16239267 6.045184,0.16239267 C7.085056,0.16239267 7.973632,0.941005236 7.973632,2.25374346 C7.973632,3.55827225 7.076864,4.35330366 6.045184,4.35330366 L6.045184,4.35330366 Z" id="Fill-3" fill="#1E4380" mask="url(#mask-2)"></path>
                </g>
                <polyline id="Fill-5" fill="#1E4380" points="14.379776 45.5168953 14.379776 48.9122618 13.658112 48.9122618 13.658112 45.5168953 12.395776 45.5168953 12.395776 44.8806649 15.60192 44.8806649 15.697408 45.5168953 14.379776 45.5168953"></polyline>
                <polyline id="Fill-6" fill="#1E4380" points="16.48896 48.9122618 16.48896 44.8806649 18.988032 44.8806649 18.988032 45.5089424 17.202944 45.5089424 17.202944 46.5027958 18.631168 46.5027958 18.734336 47.1313298 17.202944 47.1313298 17.202944 48.2842408 19.044352 48.2842408 19.044352 48.9122618 16.48896 48.9122618"></polyline>
                <polyline id="Fill-7" fill="#1E4380" points="20.017152 48.9122618 20.017152 44.8806649 20.731904 44.8806649 20.731904 48.2921937 22.25536 48.2921937 22.358784 48.9122618 20.017152 48.9122618"></polyline>
                <g id="Group-11" transform="translate(22.784000, 44.638743)">
                    <mask id="mask-4" fill="white">
                        <use xlink:href="#path-3"></use>
                    </mask>
                    <g id="Clip-9"></g>
                    <path d="M1.450496,4.32918848 C0.974336,4.32918848 0.482816,4.2024555 0.06912,4.02749215 L0.172288,3.38305236 C0.553216,3.58264398 1.0688,3.74118848 1.481984,3.74118848 C1.942016,3.74118848 2.26688,3.53467016 2.26688,3.19167016 C2.26688,2.85918848 2.052864,2.73091623 1.473792,2.53260733 C0.632832,2.23758115 0.204288,1.97513613 0.204288,1.34737173 C0.204288,0.655984293 0.775424,0.186251309 1.55264,0.186251309 C2.013184,0.186251309 2.418176,0.290408377 2.719232,0.424837696 L2.616576,1.08518325 C2.25152,0.893287958 1.893632,0.782717277 1.528832,0.782717277 C1.132288,0.782717277 0.86272,0.997445026 0.86272,1.25989005 C0.86272,1.56979581 1.084928,1.68190576 1.711872,1.89637696 C2.553344,2.18986387 2.925568,2.47642408 2.925568,3.10521466 C2.925568,3.8525288 2.331392,4.32918848 1.450496,4.32918848" id="Fill-8" fill="#1E4380" mask="url(#mask-4)"></path>
                    <path d="M6.714624,2.4125445 C6.35776,2.6039267 6.159872,2.85918848 6.159872,3.17653403 C6.159872,3.55827225 6.429696,3.81302094 6.889216,3.81302094 C7.19872,3.81302094 7.492096,3.68500524 7.722496,3.42281675 L6.714624,2.4125445 Z M8.626944,4.32918848 L8.08704,3.79685864 C7.75424,4.14678534 7.333632,4.36125654 6.817536,4.36125654 C5.936896,4.36125654 5.46048,3.93975393 5.46048,3.24734031 C5.46048,2.6834555 5.817856,2.3099267 6.35776,2.03978534 C6.096128,1.76117801 5.96864,1.52207853 5.96864,1.15598953 C5.96864,0.616219895 6.373632,0.16239267 7.111936,0.16239267 C7.516416,0.16239267 7.88096,0.273989529 8.15872,0.416115183 L8.055552,1.05311518 C7.74656,0.854806283 7.437568,0.734743455 7.143168,0.734743455 C6.809856,0.734743455 6.651392,0.917659686 6.651392,1.16471204 C6.651392,1.38662304 6.762496,1.54593717 7.008768,1.80094241 L8.047616,2.86688482 C8.166912,2.6039267 8.246528,2.28529843 8.285952,1.91125654 L8.865536,2.03978534 C8.794624,2.50874869 8.6592,2.93743455 8.461056,3.29557068 L9.325568,4.16987435 L8.626944,4.32918848 L8.626944,4.32918848 Z" id="Fill-10" fill="#1E4380" mask="url(#mask-4)"></path>
                </g>
                <path d="M35.951616,45.500733 L35.42784,45.500733 L35.42784,46.7970524 L35.951616,46.7970524 C36.467712,46.7970524 36.760576,46.5582094 36.760576,46.1287539 C36.760576,45.7239267 36.47488,45.500733 35.951616,45.500733 Z M37.030912,48.9599791 L35.86432,47.3534974 L35.42784,47.3534974 L35.42784,48.9122618 L34.713344,48.9122618 L34.713344,44.8806649 L35.960064,44.8806649 C36.87936,44.8806649 37.475072,45.3262827 37.475072,46.1215707 C37.475072,46.7180366 37.141504,47.091822 36.633856,47.2665288 L37.768704,48.7924555 L37.030912,48.9599791 L37.030912,48.9599791 Z" id="Fill-12" fill="#1E4380"></path>
                <polyline id="Fill-13" fill="#1E4380" points="38.58688 48.9122618 38.58688 44.8806649 41.087488 44.8806649 41.087488 45.5089424 39.301376 45.5089424 39.301376 46.5027958 40.729856 46.5027958 40.833792 47.1313298 39.301376 47.1313298 39.301376 48.2842408 41.142528 48.2842408 41.142528 48.9122618 38.58688 48.9122618"></polyline>
                <g id="Group-17" transform="translate(41.728000, 44.638743)">
                    <mask id="mask-6" fill="white">
                        <use xlink:href="#path-5"></use>
                    </mask>
                    <g id="Clip-15"></g>
                    <path d="M1.590784,4.32918848 C1.114112,4.32918848 0.621312,4.2024555 0.209408,4.02749215 L0.313088,3.38305236 C0.693504,3.58264398 1.2096,3.74118848 1.62176,3.74118848 C2.082304,3.74118848 2.407168,3.53467016 2.407168,3.19167016 C2.407168,2.85918848 2.193408,2.73091623 1.61408,2.53260733 C0.77312,2.23758115 0.344576,1.97513613 0.344576,1.34737173 C0.344576,0.655984293 0.9152,0.186251309 1.69344,0.186251309 C2.154496,0.186251309 2.557952,0.290408377 2.860288,0.424837696 L2.756864,1.08518325 C2.391808,0.893287958 2.034432,0.782717277 1.670144,0.782717277 C1.271808,0.782717277 1.003008,0.997445026 1.003008,1.25989005 C1.003008,1.56979581 1.225216,1.68190576 1.851648,1.89637696 C2.69312,2.18986387 3.066368,2.47642408 3.066368,3.10521466 C3.066368,3.8525288 2.471168,4.32918848 1.590784,4.32918848" id="Fill-14" fill="#1E4380" mask="url(#mask-6)"></path>
                    <path d="M5.60512,0.774764398 C4.84352,0.774764398 4.399104,1.41073822 4.399104,2.25374346 C4.399104,3.0731466 4.86656,3.74888482 5.60512,3.74888482 C6.358528,3.74888482 6.803456,3.09700524 6.803456,2.26195288 C6.803456,1.43459686 6.334464,0.774764398 5.60512,0.774764398 Z M5.640448,4.35330366 C4.6016,4.35330366 3.704576,3.56622513 3.704576,2.26195288 C3.704576,0.94921466 4.610048,0.16239267 5.640448,0.16239267 C6.680576,0.16239267 7.56992,0.941005236 7.56992,2.25374346 C7.56992,3.55827225 6.672896,4.35330366 5.640448,4.35330366 L5.640448,4.35330366 Z" id="Fill-16" fill="#1E4380" mask="url(#mask-6)"></path>
                </g>
                <path d="M51.372032,45.500733 L50.849024,45.500733 L50.849024,46.7970524 L51.372032,46.7970524 C51.888384,46.7970524 52.182528,46.5582094 52.182528,46.1287539 C52.182528,45.7239267 51.8976,45.500733 51.372032,45.500733 Z M52.452096,48.9599791 L51.285504,47.3534974 L50.849024,47.3534974 L50.849024,48.9122618 L50.135552,48.9122618 L50.135552,44.8806649 L51.379968,44.8806649 C52.30208,44.8806649 52.897024,45.3262827 52.897024,46.1215707 C52.897024,46.7180366 52.563968,47.091822 52.056576,47.2665288 L53.1904,48.7924555 L52.452096,48.9599791 L52.452096,48.9599791 Z" id="Fill-18" fill="#1E4380"></path>
                <polyline id="Fill-19" fill="#1E4380" points="55.493888 45.5168953 55.493888 48.9122618 54.77248 48.9122618 54.77248 45.5168953 53.509376 45.5168953 53.509376 44.8806649 56.716032 44.8806649 56.810496 45.5168953 55.493888 45.5168953"></polyline>
                <path d="M58.580992,48.9679319 C58.105088,48.9679319 57.613568,48.841199 57.200128,48.6662356 L57.303552,48.0217958 C57.683968,48.2213874 58.200064,48.3799319 58.612992,48.3799319 C59.072512,48.3799319 59.397888,48.1734136 59.397888,47.8304136 C59.397888,47.4979319 59.183616,47.3696597 58.604544,47.1713508 C57.763584,46.8763246 57.334528,46.6138796 57.334528,45.9861152 C57.334528,45.2947277 57.905408,44.8249948 58.684928,44.8249948 C59.143936,44.8249948 59.549952,44.9291518 59.849984,45.0635812 L59.747072,45.7239267 C59.382528,45.5320314 59.024896,45.4214607 58.66112,45.4214607 C58.263552,45.4214607 57.993472,45.6361885 57.993472,45.8986335 C57.993472,46.2085393 58.215936,46.3206492 58.84288,46.5351204 C59.68512,46.8286073 60.0576,47.1151675 60.0576,47.7439581 C60.0576,48.4912723 59.46112,48.9679319 58.580992,48.9679319" id="Fill-20" fill="#1E4380"></path>
                <path d="M31.240448,0.138790576 C24.069888,0.138790576 18.788608,4.70528272 18.788608,9.58501571 C18.788608,12.1063351 20.206848,14.2300105 21.991168,15.7020628 L22.126848,15.6097068 C20.711168,14.437555 19.433472,12.5991571 19.433472,10.0819424 C19.807488,4.74325131 26.379008,1.73372775 32.218368,1.73372775 C36.352768,1.73372775 43.776512,2.69089529 43.776512,9.61426178 C43.776512,13.2266649 39.923712,17.9245079 31.836416,17.9245079 C27.694592,17.9245079 24.476672,15.7020628 24.476672,12.5085969 C24.476672,9.74253403 26.637312,7.77355497 29.860608,7.77355497 C30.748672,7.77355497 31.580928,7.98135602 32.215552,8.15426702 C30.871552,7.91183246 28.784896,8.25765445 27.705088,9.10758639 L27.705088,13.7833665 L31.665408,13.7833665 L31.665408,8.46802094 C32.412672,8.60296335 32.991488,8.88336649 33.390592,9.13272775 L33.390592,13.7833665 L34.422272,13.7833665 C33.611008,14.6948691 32.100608,15.2497749 30.792192,15.0455654 L30.792192,15.2413089 C34.555392,15.5378743 36.147712,13.7500157 36.147712,11.7381937 C36.147712,9.37131414 33.931008,7.98135602 31.665408,7.69684817 L31.665408,4.20142932 L27.705088,4.20142932 L27.705088,7.73840838 C25.142272,8.25560209 22.633472,9.7815288 22.633472,12.3087487 C22.633472,16.1989895 28.060416,18.6092251 32.781568,18.6092251 C39.956992,18.6092251 45.478656,15.1330471 45.478656,10.2563927 C45.478656,4.35253403 37.507072,0.138790576 31.240448,0.138790576 M36.698368,11.8744188 C36.698368,10.1553141 35.525376,8.77818325 33.390592,8.1132199 L33.390592,4.20142932 L37.346048,4.20142932 L37.346048,13.7833665 L36.109312,13.7833665 C36.544256,13.1694555 36.698368,12.4729372 36.698368,11.8744188" id="Fill-21" fill="#1E4380"></path>
                <g id="Group-25" transform="translate(0.000000, 16.675393)">
                    <mask id="mask-8" fill="white">
                        <use xlink:href="#path-7"></use>
                    </mask>
                    <g id="Clip-23"></g>
                    <path d="M44.580352,0.854806283 C44.733696,0.849162304 44.769792,0.786308901 44.769792,0.705753927 C44.769792,0.627764398 44.733696,0.587743455 44.603136,0.587743455 L44.408832,0.587743455 L44.408832,0.854806283 L44.580352,0.854806283 Z M44.408832,1.01719895 L44.408832,1.46820419 L44.247552,1.46820419 L44.247552,0.424837696 L44.583168,0.424837696 C44.774656,0.424837696 44.972032,0.47691623 44.972032,0.712937173 C44.972032,0.833256545 44.897536,0.927921466 44.759296,0.955884817 L44.759296,0.960759162 C44.903168,0.988979058 44.921088,1.05260209 44.935936,1.16548168 C44.951552,1.26527749 44.961536,1.37405236 44.997376,1.46820419 L44.790272,1.46820419 C44.779776,1.40919895 44.762112,1.34301047 44.754176,1.28195288 C44.744192,1.1921623 44.744192,1.10929843 44.695296,1.05978534 C44.656896,1.01719895 44.603136,1.02232984 44.547072,1.01719895 L44.408832,1.01719895 Z M45.325312,0.958706806 C45.325312,0.55721466 45.000192,0.229094241 44.598272,0.229094241 C44.193792,0.229094241 43.866112,0.55721466 43.866112,0.958706806 C43.866112,1.36430366 44.193792,1.69242408 44.598272,1.69242408 C45.000192,1.69242408 45.325312,1.36430366 45.325312,0.958706806 L45.325312,0.958706806 Z M43.709696,0.958706806 C43.709696,0.469989529 44.104192,0.0731151832 44.598272,0.0731151832 C45.086976,0.0731151832 45.481472,0.469989529 45.481472,0.958706806 C45.481472,1.45178534 45.086976,1.8481466 44.598272,1.8481466 C44.104192,1.8481466 43.709696,1.45178534 43.709696,0.958706806 L43.709696,0.958706806 Z" id="Fill-22" fill="#1E4380" mask="url(#mask-8)"></path>
                    <polyline id="Fill-24" fill="#1E4380" mask="url(#mask-8)" points="13.98656 7.67555497 13.98656 21.459178 15.053568 21.6018168 15.053568 22.4096754 9.766912 22.4096754 9.766912 21.6018168 10.904832 21.459178 10.904832 15.1876911 4.14848 15.1876911 4.14848 21.459178 5.191424 21.6018168 5.191424 22.4096754 0 22.4096754 0 21.6018168 1.042944 21.459178 1.042944 7.67555497 0 7.53265969 0 6.74840314 5.191424 6.74840314 5.191424 7.53265969 4.14848 7.67555497 4.14848 13.5709476 10.904832 13.5709476 10.904832 7.67555497 9.766912 7.53265969 9.766912 6.74840314 15.053568 6.74840314 15.053568 7.53265969 13.98656 7.67555497"></polyline>
                </g>
                <path d="M21.353984,24.4220105 C21.353984,25.4676859 20.642816,26.2524555 19.670528,26.2524555 C18.674944,26.2524555 17.98784,25.5395183 17.98784,24.4938429 C17.98784,23.4948586 18.674944,22.7103455 19.670528,22.7103455 C20.642816,22.7103455 21.353984,23.4948586 21.353984,24.4220105 Z M20.9984,38.2300052 L21.993984,38.3723874 L21.993984,39.0850681 L17.13408,39.0850681 L17.13408,38.3723874 L18.12992,38.2300052 L18.12992,28.7963508 L17.13408,28.6534555 L17.13408,27.9402618 L20.9984,27.9402618 L20.9984,38.2300052 L20.9984,38.2300052 Z" id="Fill-26" fill="#1E4380"></path>
                <polyline id="Fill-27" fill="#1E4380" points="24.10496 38.3723874 25.076736 38.2300052 25.076736 23.8037382 24.10496 23.6610995 24.10496 22.9481623 27.968768 22.9481623 27.968768 38.2300052 28.964608 38.3723874 28.964608 39.0850681 24.10496 39.0850681 24.10496 38.3723874"></polyline>
                <path d="M34.868736,27.9402618 L37.476608,27.9402618 L37.476608,28.9864503 L34.868736,28.9864503 L34.868736,35.6165864 C34.868736,37.3269686 35.22432,37.8736649 36.76544,37.8736649 C37.334272,37.8736649 37.831936,37.8736649 38.30656,37.7546283 L38.30656,38.5150262 C36.907776,39.0137487 35.721984,39.2274503 34.7264,39.2274503 C32.498176,39.2274503 31.976448,38.2058901 31.976448,36.2579476 L31.976448,28.9864503 L29.93792,28.9864503 L29.93792,27.9402618 L32.047872,27.9402618 L32.047872,25.6105812 L34.868736,24.7550052 L34.868736,27.9402618" id="Fill-28" fill="#1E4380"></path>
                <path d="M47.308544,33.5496073 C47.308544,30.0323822 46.266112,28.4869581 44.5824,28.4869581 C42.947072,28.4869581 41.903872,29.9613194 41.903872,33.5496073 C41.903872,37.0894084 42.947072,38.5622304 44.5824,38.5622304 C46.337024,38.5622304 47.308544,37.1607277 47.308544,33.5496073 Z M50.484992,33.6209267 C50.484992,37.0894084 48.16256,39.4175497 44.511488,39.4175497 C40.9792,39.4175497 38.726912,37.897267 38.726912,33.6209267 C38.726912,30.0323822 41.050624,27.6313822 44.700928,27.6313822 C48.304384,27.6313822 50.484992,29.794822 50.484992,33.6209267 L50.484992,33.6209267 Z" id="Fill-29" fill="#1E4380"></path>
                <path d="M63.963392,38.3723874 L63.963392,39.0850681 L59.103488,39.0850681 L59.103488,38.3723874 L60.07552,38.2300052 L60.07552,31.8866859 C60.07552,30.1278168 59.43552,29.3430471 58.107904,29.3430471 C57.491968,29.3430471 56.519424,29.7709634 55.808512,30.270199 L55.808512,38.2300052 L56.804096,38.3723874 L56.804096,39.0850681 L51.920384,39.0850681 L51.920384,38.3723874 L52.91648,38.2300052 L52.91648,28.8674136 L51.920384,28.7247749 L51.920384,27.9402618 L55.808512,27.9402618 L55.808512,29.4859424 C57.0176,28.5110733 58.179072,27.7265602 59.8144,27.7265602 C61.99552,27.7265602 62.968064,29.0103089 62.968064,31.530089 L62.968064,38.2300052 L63.963392,38.3723874" id="Fill-30" fill="#1E4380"></path>
            </g>
        </g>
    </g>
</svg>