<svg width="70" height="40" viewBox="0 0 70 40" fill="none" xmlns="http://www.w3.org/2000/svg"><path d="M55.648 33.515l-.146-.178h-.017a6.767 6.767 0 01-1.035-.106 8.364 8.364 0 01-4.108-2.252c-.261-.27-.548-.597-.877-.998-2.253-2.782-3.824-9.228-.831-18.287l.016-.049h-.644a9.118 9.118 0 00-6.45 2.633c-1.906 1.756-3.298 4.013-4.182 5.728l-.541.086a26.47 26.47 0 00.327-3.906c0-1.674-.236-3.258-.948-4.156-.654-.828-1.759-.965-3.18-.4-3.026 1.38-6.238 4.805-8.624 9.174a13.343 13.343 0 00-5.722-12.71c-3.123-1.988-5.383-1.93-5.406-1.93h-.057l.106.217h.02c.406.048 4.027.576 6.457 4.582 1.142 1.91 1.723 4.413 1.723 7.473-.011 3.622-.84 8.128-2.33 12.694l-.42 1.261h3.294l.38-1.24c1.377-4.569 3.635-11.155 7.296-15.586 1.296-1.568 3.237-3.15 4.061-3.008a.638.638 0 01.426.317c.885 1.404.15 7.241-1.825 14.96h3.166c.253-.835.565-1.784.951-2.792.637-1.669 2.422-5.465 4.625-7.898 1.973-2.183 3.272-2.7 3.55-2.782a29.499 29.499 0 00-.744 6.42c0 1.897.222 3.954.908 5.784a9.794 9.794 0 002.17 3.556 11.024 11.024 0 007.828 3.49l.827-.026-.044-.07z" fill="#E1DDD0"/><path fill-rule="evenodd" clip-rule="evenodd" d="M13.166 25.736l2.84-5.58v5.678h1.593v-7.668h-1.934l-2.867 5.343-2.869-5.343H8v7.668h1.592v-5.678l2.84 5.58h.734zm18.88-6.246c.305-.001.608.037.902.113-.005.041-.01.09-.013.141-.03.383-.079 1.004-.892.965-1.32-.08-2.03.666-2.03 2.455v2.68h-1.637v-6.228h1.49l-.019 1.619c.642-1.463 1.708-1.745 2.2-1.745zm10.884 4.232v-4.106h-1.625v4.327c0 1.258 1.052 2.029 2.454 2.029 1.125 0 2.077-.429 2.578-1.273l.036 1.145h1.472v-6.228h-1.628v3.3c0 1.045-.466 2.218-1.885 2.218-1.16 0-1.402-.67-1.402-1.412zm11.739-4.119a3.512 3.512 0 00-.902-.113c-.499 0-1.56.282-2.199 1.745l.018-1.619h-1.489v6.228h1.628v-2.68c0-1.789.71-2.535 2.03-2.455.822.04.87-.584.9-.965l.014-.14zm-16.913.592c-1.12 0-2.429.606-2.429 2.51l.002-.012c.01 2.127 1.404 2.559 2.271 2.559a3.795 3.795 0 001.473-.318.925.925 0 011.127.328 6.437 6.437 0 01-2.876.702c-2.03 0-3.787-1.201-3.81-3.201 0-2.404 2.283-3.273 4.083-3.273a6.398 6.398 0 012.103.35.062.062 0 00-.013.017.913.913 0 01-.966.47 4.72 4.72 0 00-.965-.132zm-11.339 1.956v.345l-5.064-.005c-.105 2.303 1.413 2.769 2.313 2.769.604 0 .972-.134 1.466-.313l.038-.014a1.08 1.08 0 01.328-.06.93.93 0 01.757.394 6.486 6.486 0 01-2.878.703c-2.042 0-3.806-1.222-3.806-3.24 0-1.589 1.283-3.24 3.737-3.24 2.71 0 3.11 1.804 3.11 2.66zm-3.166-2.03c.969 0 1.54.516 1.54 1.714h-3.392c.155-1.134.916-1.715 1.852-1.715zm38.718 2.03v.345l-5.065-.005c-.104 2.303 1.414 2.769 2.314 2.769.602 0 .968-.133 1.461-.311l.045-.016a.925.925 0 011.083.334 6.48 6.48 0 01-2.878.703c-2.04 0-3.807-1.222-3.807-3.24 0-1.589 1.283-3.24 3.738-3.24 2.711 0 3.109 1.804 3.109 2.66zm-3.166-2.03c.968 0 1.54.516 1.54 1.714H56.95c.156-1.134.918-1.715 1.852-1.715zm-30.873 9.59a.05.05 0 00-.048-.05h-.354a.054.054 0 00-.052.052v1.1h-1.428v-1.1a.054.054 0 00-.048-.052h-.345a.054.054 0 00-.048.052v2.618a.05.05 0 00.048.048h.352a.05.05 0 00.047-.048v-1.114h1.429v1.116a.049.049 0 00.052.046h.35a.046.046 0 00.044-.048v-2.619zm2.686 2.702a1.394 1.394 0 11.034 0h-.034zm-1.003-1.409a.982.982 0 011.003-.96h.022a.96.96 0 01.939.982v.02a.982.982 0 11-1.964-.042zm5.55-1.343a.05.05 0 01.05.052v.295a.046.046 0 01-.044.047h-.865v2.27a.05.05 0 01-.05.047h-.347a.047.047 0 01-.05-.045v-2.272h-.863a.046.046 0 01-.048-.045v-.297a.05.05 0 01.046-.053h.002l2.17.002zm3.138.05a.05.05 0 00-.048-.05l-1.895-.007a.054.054 0 00-.049.053v2.618a.05.05 0 00.05.047h1.897a.046.046 0 00.045-.047v-.298a.047.047 0 00-.048-.047h-1.497v-.77h1.29a.05.05 0 00.048-.047v-.301a.047.047 0 00-.049-.046h-1.29v-.76h1.501a.046.046 0 00.045-.048v-.297zm1.624-.05a.054.054 0 01.048.052v2.267h1.27c.026 0 .047.02.047.047v.298a.046.046 0 01-.044.047h-1.664a.048.048 0 01-.048-.047v-2.618c0-.027.02-.05.048-.053l.343.007zm2.4 2.437c-.01.024.002.05.026.06.28.17.604.259.932.255.254.01.505-.064.712-.21a.754.754 0 00.295-.618.672.672 0 00-.328-.597c-.161-.104-.346-.158-.529-.21a4.119 4.119 0 01-.248-.078c-.222-.075-.37-.167-.37-.342a.288.288 0 01.117-.239.602.602 0 01.389-.106 1.356 1.356 0 01.676.195.044.044 0 00.057-.025l.14-.29v-.002a.049.049 0 00-.02-.066 1.702 1.702 0 00-.828-.2 1.184 1.184 0 00-.742.208.655.655 0 00-.258.545.645.645 0 00.374.602c.243.11.493.203.748.278.195.075.342.18.342.363a.36.36 0 01-.147.306.62.62 0 01-.378.103 1.373 1.373 0 01-.767-.258.04.04 0 00-.05.024l-.139.295a.043.043 0 00-.004.007z" fill="#5F255F"/></svg>